<svg xmlns="http://www.w3.org/2000/svg" viewBox="0 0 512 512">
  <rect width="512" height="512" rx="128" fill="#5A5A40"/>
  <path d="M384 192c0-70.7-57.3-128-128-128S128 121.3 128 192c0 40.4 18.7 76.4 48 100v124c0 17.7 14.3 32 32 32h96c17.7 0 32-14.3 32-32V292c29.3-23.6 48-59.6 48-100z" fill="white" opacity="0.2"/>
  <path d="M256 128c-35.3 0-64 28.7-64 64s28.7 64 64 64 64-28.7 64-64-28.7-64-64-64zm0 96c-17.7 0-32-14.3-32-32s14.3-32 32-32 32 14.3 32 32-14.3 32-32 32z" fill="white"/>
  <path d="M256 320c-53 0-96 43-96 96 0 8.8 7.2 16 16 16s16-7.2 16-16c0-35.3 28.7-64 64-64s64 28.7 64 64c0 8.8 7.2 16 16 16s16-7.2 16-16c0-53-43-96-96-96z" fill="white"/>
</svg>
